<?xml version="1.0" encoding="utf-8"?>
<svg width="32px" height="32px" viewBox="0 0 32 32" version="1.1" xmlns:xlink="http://www.w3.org/1999/xlink"
  xmlns="http://www.w3.org/2000/svg">
  <defs>
    <rect width="32" height="32" id="artboard_1" />
    <clipPath id="clip_1">
      <use xlink:href="#artboard_1" clip-rule="evenodd" />
    </clipPath>
  </defs>
  <g id="marche-logo" clip-path="url(#clip_1)">
    <use xlink:href="#artboard_1" stroke="none" fill="none" />
    <g id="Group" transform="translate(5 5)">
      <path d="M7 0L14 10L0 10L7 0Z" transform="matrix(1.1483816E-06 1 -1 1.1483816E-06 10 7)" id="Triangle"
        fill="#081AE1" fill-rule="evenodd" stroke="none" />
      <path
        d="M3.999 0L16.001 0Q16.1975 0 16.393 0.0192563Q16.5885 0.0385126 16.7812 0.0768396Q16.9738 0.115167 17.1618 0.172196Q17.3498 0.229224 17.5313 0.304406Q17.7129 0.379587 17.8861 0.472197Q18.0594 0.564807 18.2227 0.673953Q18.3861 0.783099 18.5379 0.907731Q18.6898 1.03236 18.8287 1.17128Q18.9676 1.3102 19.0923 1.46206Q19.2169 1.61393 19.326 1.77727Q19.4352 1.94062 19.5278 2.11388Q19.6204 2.28715 19.6956 2.46865Q19.7708 2.65015 19.8278 2.83815Q19.8848 3.02615 19.9232 3.21883Q19.9615 3.41152 19.9807 3.60703Q20 3.80254 20 3.999L20 15L0 15L0 3.999Q0 3.80254 0.0192563 3.60703Q0.0385126 3.41152 0.0768396 3.21883Q0.115167 3.02615 0.172196 2.83815Q0.229224 2.65015 0.304406 2.46865Q0.379587 2.28715 0.472197 2.11388Q0.564807 1.94062 0.673953 1.77727Q0.783099 1.61393 0.907731 1.46206Q1.03236 1.3102 1.17128 1.17128Q1.3102 1.03236 1.46206 0.907731Q1.61393 0.783099 1.77727 0.673953Q1.94062 0.564807 2.11388 0.472197Q2.28715 0.379587 2.46865 0.304406Q2.65015 0.229224 2.83815 0.172196Q3.02615 0.115167 3.21883 0.0768396Q3.41152 0.0385126 3.60703 0.0192563Q3.80254 0 3.999 0Z"
        transform="translate(3.0517578E-05 0)" id="Rectangle" fill="#DCEEFF" fill-rule="evenodd" stroke="none" />
    </g>
  </g>
</svg>